<svg xmlns="http://www.w3.org/2000/svg" width="28" height="28" viewBox="0 0 28 28">
    <g data-name="Group 6254">
        <g data-name="Path 2762" style="fill:#fff">
            <path d="M14 27.5a13.412 13.412 0 0 1-9.546-3.954A13.412 13.412 0 0 1 .5 14c0-3.606 1.404-6.996 3.954-9.546A13.412 13.412 0 0 1 14 .5c3.606 0 6.996 1.404 9.546 3.954A13.412 13.412 0 0 1 27.5 14c0 3.606-1.404 6.996-3.954 9.546A13.412 13.412 0 0 1 14 27.5z" style="stroke:none"/>
            <path d="M14 1a12.915 12.915 0 0 0-9.192 3.808A12.915 12.915 0 0 0 1 14c0 3.472 1.352 6.737 3.808 9.192A12.915 12.915 0 0 0 14 27c3.472 0 6.737-1.352 9.192-3.808A12.915 12.915 0 0 0 27 14c0-3.472-1.352-6.737-3.808-9.192A12.915 12.915 0 0 0 14 1m0-1c7.732 0 14 6.268 14 14s-6.268 14-14 14S0 21.732 0 14 6.268 0 14 0z" style="fill:#dcdfef;stroke:none"/>
        </g>
        <path data-name="Rectangle 2199" style="fill:none" d="M0 0h20v20H0z" transform="translate(4 4)"/>
        <path data-name="Combined Shape" d="M0 14.189c0-2.892 3.822-3.226 6.7-3.226 1.656 0 6.7 0 6.7 3.244 0 2.891-3.822 3.225-6.7 3.225-1.659 0-6.7 0-6.7-3.243zm1.269 0c0 1.279 1.826 1.927 5.429 1.927s5.427-.643 5.427-1.91S10.3 12.279 6.7 12.279s-5.431.643-5.431 1.91zm5.4-4.873a4.37 4.37 0 0 1-3.16-1.372 4.7 4.7 0 0 1-1.3-3.288A4.58 4.58 0 0 1 6.7 0a4.581 4.581 0 0 1 4.489 4.658A4.58 4.58 0 0 1 6.7 9.316zM3.414 4.658a3.339 3.339 0 0 0 3.259 3.406l.024.627v-.627a3.2 3.2 0 0 0 2.319-1 3.449 3.449 0 0 0 .962-2.407A3.349 3.349 0 0 0 6.7 1.253a3.35 3.35 0 0 0-3.286 3.405z" transform="translate(7.304 5.284)" style="fill:#6673b8"/>
    </g>
</svg>
