<svg xmlns="http://www.w3.org/2000/svg" width="24" height="24" viewBox="0 0 24 24">
    <path data-name="Rectangle 2199" style="fill:none" d="M0 0h24v24H0z"/>
    <path data-name="Combined Shape" d="M0 18.919c0-3.856 5.1-4.3 8.93-4.3 2.208 0 8.928 0 8.928 4.325 0 3.854-5.1 4.3-8.928 4.3C6.721 23.242 0 23.242 0 18.919zm1.691 0c0 1.705 2.435 2.57 7.238 2.57s7.236-.857 7.236-2.547c0-1.705-2.435-2.57-7.236-2.57s-7.238.857-7.238 2.547zm7.2-6.5a5.827 5.827 0 0 1-4.216-1.83 6.272 6.272 0 0 1-1.733-4.381A6.107 6.107 0 0 1 8.93 0a6.108 6.108 0 0 1 5.985 6.211 6.107 6.107 0 0 1-5.985 6.21zM4.553 6.211A4.453 4.453 0 0 0 8.9 10.752l.032.836v-.836a4.269 4.269 0 0 0 3.09-1.332A4.6 4.6 0 0 0 13.3 6.211a4.465 4.465 0 0 0-4.37-4.54 4.466 4.466 0 0 0-4.377 4.54z" transform="translate(3.072 .379)" style="fill:#6673b8"/>
</svg>
