<svg data-name="Group 4878" xmlns="http://www.w3.org/2000/svg" width="64" height="64" viewBox="0 0 64 64">
    <circle data-name="Ellipse 134" cx="32" cy="32" r="32" style="fill:#13c666"/>
    <g data-name="Iconly/Light-Outline/Folder">
        <path data-name="Combined Shape" d="M11.219 36C4.3 36 0 31.7 0 24.787V11.2C0 3.77 3.3 0 9.815 0h3.478a5.3 5.3 0 0 1 4.219 2.115L19.1 4.226A2.693 2.693 0 0 0 21.232 5.3h4.922C32.871 5.3 36 8.742 36 16.142l-.049 8.651c0 6.913-4.294 11.206-11.2 11.206zM2.61 11.2v13.587c0 5.546 3.057 8.6 8.61 8.6h13.534c5.538 0 8.588-3.054 8.588-8.6l.049-8.653c0-5.921-2.029-8.228-7.237-8.228H21.23A5.306 5.306 0 0 1 17.013 5.8l-1.589-2.118a2.676 2.676 0 0 0-2.132-1.069H9.815c-5.05 0-7.205 2.569-7.205 8.587zm7.79 12.683a1.306 1.306 0 0 1 0-2.612h15.2a1.306 1.306 0 0 1 0 2.612z" style="fill:#fff" transform="translate(14 14)"/>
    </g>
</svg>
