<svg data-name="Group 6110" xmlns="http://www.w3.org/2000/svg" width="40" height="40" viewBox="0 0 40 40">
    <g data-name="Group 5991">
        <g data-name="Path 2751" style="fill:none">
            <path d="M14 0A14 14 0 1 1 0 14 14 14 0 0 1 14 0z" style="stroke:none" transform="translate(6 6)"/>
            <path d="M14 1a12.915 12.915 0 0 0-9.192 3.808A12.915 12.915 0 0 0 1 14c0 3.472 1.352 6.737 3.808 9.192A12.915 12.915 0 0 0 14 27c3.472 0 6.737-1.352 9.192-3.808A12.915 12.915 0 0 0 27 14c0-3.472-1.352-6.737-3.808-9.192A12.915 12.915 0 0 0 14 1m0-1c7.732 0 14 6.268 14 14s-6.268 14-14 14S0 21.732 0 14 6.268 0 14 0z" style="fill:#fff;stroke:none" transform="translate(6 6)"/>
        </g>
        <g data-name="Group 36">
            <path data-name="Path 21" d="M2.559 35.751a1.471 1.471 0 0 1 1.065-.486 1.521 1.521 0 0 1 1.077.483l1 .988c.082-.044.164-.085.243-.125.113-.056.221-.11.312-.166a10.8 10.8 0 0 0 2.593-2.352 6.351 6.351 0 0 0 .851-1.336c-.258-.235-.5-.48-.731-.715-.088-.088-.176-.179-.265-.267a1.435 1.435 0 0 1 0-2.17l.86-.856c.1-.1.2-.2.293-.3.189-.194.387-.4.592-.583a1.494 1.494 0 0 1 1.055-.461 1.546 1.546 0 0 1 1.071.461l.006.006 1.071 1.076a2.29 2.29 0 0 1 .684 1.458 5.476 5.476 0 0 1-.4 2.327 13.491 13.491 0 0 1-2.41 4 14.815 14.815 0 0 1-4.936 3.848 7.717 7.717 0 0 1-2.78.819c-.066 0-.135.006-.2.006a2.379 2.379 0 0 1-1.818-.778c0-.006-.009-.009-.013-.016a7.143 7.143 0 0 0-.551-.568 21.751 21.751 0 0 1-.41-.4 1.561 1.561 0 0 1-.476-1.085A1.5 1.5 0 0 1 .83 37.48zm-1.128 3.3c.123.132.249.251.384.383a8.262 8.262 0 0 1 .608.627 1.522 1.522 0 0 0 1.184.5h.145a6.855 6.855 0 0 0 2.457-.734A13.985 13.985 0 0 0 10.86 36.2a12.721 12.721 0 0 0 2.268-3.76 4.46 4.46 0 0 0 .353-1.963 1.437 1.437 0 0 0-.435-.931l-1.074-1.069a.717.717 0 0 0-.479-.223.675.675 0 0 0-.46.22l-.009.009c-.192.179-.375.364-.567.561l-.3.3-.857.856a.6.6 0 0 0 0 .972c.091.091.18.182.271.27.265.27.517.521.791.765.006.006.013.009.016.016a.638.638 0 0 1 .164.712l-.009.028a6.868 6.868 0 0 1-1.018 1.653 11.544 11.544 0 0 1-2.8 2.534 4.3 4.3 0 0 1-.387.21c-.113.056-.221.11-.312.166-.013.006-.025.016-.038.022a.685.685 0 0 1-.312.078.675.675 0 0 1-.479-.216l-1.081-1.066a.714.714 0 0 0-.476-.235.643.643 0 0 0-.454.229l-.006.006-1.736 1.728a.618.618 0 0 0-.003.982z" transform="translate(12.656 -14.406)" style="fill:#fff"/>
        </g>
    </g>
    <path data-name="Rectangle 2408" style="fill:none" d="M0 0h40v40H0z"/>
</svg>
